<mxfile host="Electron" agent="Mozilla/5.0 (Windows NT 10.0; Win64; x64) AppleWebKit/537.36 (KHTML, like Gecko) draw.io/28.0.6 Chrome/138.0.7204.100 Electron/37.2.3 Safari/537.36" version="28.0.6">
  <diagram name="Страница — 1" id="QTrl9ZXREi7WpJJHYUYm">
    <mxGraphModel dx="1341" dy="889" grid="1" gridSize="10" guides="1" tooltips="1" connect="1" arrows="1" fold="1" page="1" pageScale="1" pageWidth="827" pageHeight="1169" math="0" shadow="0">
      <root>
        <mxCell id="0" />
        <mxCell id="1" parent="0" />
        <mxCell id="qTGdVpBpQulgfOPe4ZZl-9" value="" style="group" vertex="1" connectable="0" parent="1">
          <mxGeometry x="110" y="750" width="690" height="380" as="geometry" />
        </mxCell>
        <mxCell id="qTGdVpBpQulgfOPe4ZZl-10" value="" style="rounded=1;whiteSpace=wrap;html=1;dashed=1;" vertex="1" parent="qTGdVpBpQulgfOPe4ZZl-9">
          <mxGeometry width="690" height="380" as="geometry" />
        </mxCell>
        <mxCell id="qTGdVpBpQulgfOPe4ZZl-11" value="app/presentation" style="text;html=1;align=center;verticalAlign=middle;whiteSpace=wrap;rounded=0;fontStyle=1" vertex="1" parent="qTGdVpBpQulgfOPe4ZZl-9">
          <mxGeometry x="53.91154925847459" width="70.16949152542374" height="47.5" as="geometry" />
        </mxCell>
        <mxCell id="8ZGkcxDZsAjdSK9xiKbH-52" value="" style="group" parent="1" vertex="1" connectable="0">
          <mxGeometry x="110" y="100" width="690" height="400" as="geometry" />
        </mxCell>
        <mxCell id="8ZGkcxDZsAjdSK9xiKbH-53" value="" style="rounded=1;whiteSpace=wrap;html=1;dashed=1;" parent="8ZGkcxDZsAjdSK9xiKbH-52" vertex="1">
          <mxGeometry width="690" height="400" as="geometry" />
        </mxCell>
        <mxCell id="8ZGkcxDZsAjdSK9xiKbH-54" value="data" style="text;html=1;align=center;verticalAlign=middle;whiteSpace=wrap;rounded=0;fontStyle=1" parent="8ZGkcxDZsAjdSK9xiKbH-52" vertex="1">
          <mxGeometry x="23.38983050847457" width="70.16949152542374" height="50" as="geometry" />
        </mxCell>
        <mxCell id="8ZGkcxDZsAjdSK9xiKbH-55" value="" style="group" parent="1" vertex="1" connectable="0">
          <mxGeometry x="122.5" y="115" width="230" height="140" as="geometry" />
        </mxCell>
        <mxCell id="8ZGkcxDZsAjdSK9xiKbH-22" value="" style="ellipse;shape=cloud;whiteSpace=wrap;html=1;" parent="8ZGkcxDZsAjdSK9xiKbH-55" vertex="1">
          <mxGeometry width="230" height="140" as="geometry" />
        </mxCell>
        <mxCell id="8ZGkcxDZsAjdSK9xiKbH-16" value="PokemonApi&lt;div&gt;Retrofit&lt;/div&gt;" style="rounded=1;whiteSpace=wrap;html=1;" parent="8ZGkcxDZsAjdSK9xiKbH-55" vertex="1">
          <mxGeometry x="55" y="40" width="120" height="60" as="geometry" />
        </mxCell>
        <mxCell id="8ZGkcxDZsAjdSK9xiKbH-30" value="" style="group" parent="1" vertex="1" connectable="0">
          <mxGeometry x="110" y="520" width="690" height="210" as="geometry" />
        </mxCell>
        <mxCell id="8ZGkcxDZsAjdSK9xiKbH-27" value="" style="rounded=1;whiteSpace=wrap;html=1;dashed=1;" parent="8ZGkcxDZsAjdSK9xiKbH-30" vertex="1">
          <mxGeometry width="690" height="210" as="geometry" />
        </mxCell>
        <mxCell id="8ZGkcxDZsAjdSK9xiKbH-28" value="domain" style="text;html=1;align=center;verticalAlign=middle;whiteSpace=wrap;rounded=0;fontStyle=1" parent="8ZGkcxDZsAjdSK9xiKbH-30" vertex="1">
          <mxGeometry x="23.389830508474574" width="70.16949152542374" height="26.25" as="geometry" />
        </mxCell>
        <mxCell id="8ZGkcxDZsAjdSK9xiKbH-58" style="edgeStyle=orthogonalEdgeStyle;rounded=0;orthogonalLoop=1;jettySize=auto;html=1;exitX=0.5;exitY=1;exitDx=0;exitDy=0;entryX=0.5;entryY=1;entryDx=0;entryDy=0;dashed=1;dashPattern=1 2;startArrow=classic;startFill=1;" parent="1" source="8ZGkcxDZsAjdSK9xiKbH-1" target="8ZGkcxDZsAjdSK9xiKbH-9" edge="1">
          <mxGeometry relative="1" as="geometry" />
        </mxCell>
        <mxCell id="8ZGkcxDZsAjdSK9xiKbH-1" value="Pokemon&lt;div&gt;list&lt;/div&gt;&lt;div&gt;Fragment&lt;/div&gt;" style="rounded=0;whiteSpace=wrap;html=1;shadow=0;imageWidth=24;" parent="1" vertex="1">
          <mxGeometry x="215" y="930" width="90" height="160" as="geometry" />
        </mxCell>
        <mxCell id="8ZGkcxDZsAjdSK9xiKbH-2" value="GetPokemonList&lt;div&gt;UseCase&lt;/div&gt;" style="ellipse;whiteSpace=wrap;html=1;" parent="1" vertex="1">
          <mxGeometry x="130" y="630" width="120" height="80" as="geometry" />
        </mxCell>
        <mxCell id="8ZGkcxDZsAjdSK9xiKbH-3" value="GetPokemon&lt;div&gt;UseCase&lt;/div&gt;" style="ellipse;whiteSpace=wrap;html=1;" parent="1" vertex="1">
          <mxGeometry x="400" y="630" width="120" height="80" as="geometry" />
        </mxCell>
        <mxCell id="8ZGkcxDZsAjdSK9xiKbH-5" value="Pokemon&lt;div&gt;Repository&lt;/div&gt;" style="rounded=1;whiteSpace=wrap;html=1;" parent="1" vertex="1">
          <mxGeometry x="270" y="540" width="120" height="60" as="geometry" />
        </mxCell>
        <mxCell id="8ZGkcxDZsAjdSK9xiKbH-8" value="Pokemon&lt;div&gt;detail&lt;/div&gt;&lt;div&gt;Fragment&lt;/div&gt;" style="rounded=0;whiteSpace=wrap;html=1;shadow=0;imageWidth=24;" parent="1" vertex="1">
          <mxGeometry x="415" y="930" width="90" height="160" as="geometry" />
        </mxCell>
        <mxCell id="8ZGkcxDZsAjdSK9xiKbH-9" value="Filters&lt;div&gt;Fragment&lt;/div&gt;" style="rounded=0;whiteSpace=wrap;html=1;shadow=0;imageWidth=24;" parent="1" vertex="1">
          <mxGeometry x="610" y="930" width="90" height="160" as="geometry" />
        </mxCell>
        <mxCell id="8ZGkcxDZsAjdSK9xiKbH-10" value="PokemonList&lt;br&gt;&lt;div&gt;&lt;span style=&quot;background-color: transparent; color: light-dark(rgb(0, 0, 0), rgb(255, 255, 255));&quot;&gt;PagindData&lt;/span&gt;Adapter&lt;/div&gt;" style="rounded=1;whiteSpace=wrap;html=1;" parent="1" vertex="1">
          <mxGeometry x="260" y="840" width="120" height="60" as="geometry" />
        </mxCell>
        <mxCell id="8ZGkcxDZsAjdSK9xiKbH-11" value="PokemonDetails&lt;div&gt;ViewModel&lt;/div&gt;" style="rounded=1;whiteSpace=wrap;html=1;" parent="1" vertex="1">
          <mxGeometry x="400" y="840" width="120" height="60" as="geometry" />
        </mxCell>
        <mxCell id="8ZGkcxDZsAjdSK9xiKbH-12" value="Filters&lt;div&gt;ViewModel&lt;/div&gt;" style="rounded=1;whiteSpace=wrap;html=1;" parent="1" vertex="1">
          <mxGeometry x="530" y="840" width="120" height="60" as="geometry" />
        </mxCell>
        <mxCell id="8ZGkcxDZsAjdSK9xiKbH-13" value="PokemonList&lt;br&gt;&lt;span style=&quot;background-color: transparent; color: light-dark(rgb(0, 0, 0), rgb(255, 255, 255));&quot;&gt;ViewModel&lt;/span&gt;" style="rounded=1;whiteSpace=wrap;html=1;" parent="1" vertex="1">
          <mxGeometry x="130" y="840" width="120" height="60" as="geometry" />
        </mxCell>
        <mxCell id="8ZGkcxDZsAjdSK9xiKbH-15" value="PokemonList&lt;div&gt;RemoteMediator&lt;/div&gt;" style="rounded=1;whiteSpace=wrap;html=1;" parent="1" vertex="1">
          <mxGeometry x="177.5" y="310" width="120" height="60" as="geometry" />
        </mxCell>
        <mxCell id="8ZGkcxDZsAjdSK9xiKbH-32" value="" style="endArrow=classic;html=1;rounded=0;exitX=0.5;exitY=0;exitDx=0;exitDy=0;entryX=0.5;entryY=1;entryDx=0;entryDy=0;" parent="1" source="8ZGkcxDZsAjdSK9xiKbH-13" target="8ZGkcxDZsAjdSK9xiKbH-2" edge="1">
          <mxGeometry width="50" height="50" relative="1" as="geometry">
            <mxPoint x="710" y="810" as="sourcePoint" />
            <mxPoint x="710" y="730" as="targetPoint" />
          </mxGeometry>
        </mxCell>
        <mxCell id="8ZGkcxDZsAjdSK9xiKbH-34" value="" style="endArrow=classic;html=1;rounded=0;exitX=0.5;exitY=0;exitDx=0;exitDy=0;entryX=0.5;entryY=1;entryDx=0;entryDy=0;" parent="1" source="8ZGkcxDZsAjdSK9xiKbH-11" target="8ZGkcxDZsAjdSK9xiKbH-3" edge="1">
          <mxGeometry width="50" height="50" relative="1" as="geometry">
            <mxPoint x="660" y="780" as="sourcePoint" />
            <mxPoint x="710" y="730" as="targetPoint" />
          </mxGeometry>
        </mxCell>
        <mxCell id="8ZGkcxDZsAjdSK9xiKbH-35" value="" style="endArrow=classic;html=1;rounded=0;exitX=0.5;exitY=0;exitDx=0;exitDy=0;entryX=0.5;entryY=1;entryDx=0;entryDy=0;" parent="1" source="8ZGkcxDZsAjdSK9xiKbH-1" target="8ZGkcxDZsAjdSK9xiKbH-10" edge="1">
          <mxGeometry width="50" height="50" relative="1" as="geometry">
            <mxPoint x="660" y="750" as="sourcePoint" />
            <mxPoint x="710" y="700" as="targetPoint" />
          </mxGeometry>
        </mxCell>
        <mxCell id="8ZGkcxDZsAjdSK9xiKbH-36" value="" style="endArrow=classic;html=1;rounded=0;exitX=0.5;exitY=0;exitDx=0;exitDy=0;entryX=0.5;entryY=1;entryDx=0;entryDy=0;" parent="1" source="8ZGkcxDZsAjdSK9xiKbH-1" target="8ZGkcxDZsAjdSK9xiKbH-13" edge="1">
          <mxGeometry width="50" height="50" relative="1" as="geometry">
            <mxPoint x="660" y="750" as="sourcePoint" />
            <mxPoint x="710" y="700" as="targetPoint" />
          </mxGeometry>
        </mxCell>
        <mxCell id="8ZGkcxDZsAjdSK9xiKbH-37" value="" style="endArrow=classic;html=1;rounded=0;exitX=0.5;exitY=0;exitDx=0;exitDy=0;entryX=0.5;entryY=1;entryDx=0;entryDy=0;" parent="1" source="8ZGkcxDZsAjdSK9xiKbH-8" target="8ZGkcxDZsAjdSK9xiKbH-11" edge="1">
          <mxGeometry width="50" height="50" relative="1" as="geometry">
            <mxPoint x="660" y="750" as="sourcePoint" />
            <mxPoint x="710" y="700" as="targetPoint" />
          </mxGeometry>
        </mxCell>
        <mxCell id="8ZGkcxDZsAjdSK9xiKbH-38" value="" style="endArrow=classic;html=1;rounded=0;exitX=0.5;exitY=0;exitDx=0;exitDy=0;entryX=0.5;entryY=1;entryDx=0;entryDy=0;" parent="1" source="8ZGkcxDZsAjdSK9xiKbH-9" target="8ZGkcxDZsAjdSK9xiKbH-12" edge="1">
          <mxGeometry width="50" height="50" relative="1" as="geometry">
            <mxPoint x="660" y="750" as="sourcePoint" />
            <mxPoint x="710" y="700" as="targetPoint" />
          </mxGeometry>
        </mxCell>
        <mxCell id="8ZGkcxDZsAjdSK9xiKbH-40" value="" style="endArrow=classic;html=1;rounded=0;exitX=0.5;exitY=0;exitDx=0;exitDy=0;entryX=0.5;entryY=1;entryDx=0;entryDy=0;" parent="1" source="8ZGkcxDZsAjdSK9xiKbH-2" target="8ZGkcxDZsAjdSK9xiKbH-5" edge="1">
          <mxGeometry width="50" height="50" relative="1" as="geometry">
            <mxPoint x="570" y="620" as="sourcePoint" />
            <mxPoint x="620" y="570" as="targetPoint" />
          </mxGeometry>
        </mxCell>
        <mxCell id="8ZGkcxDZsAjdSK9xiKbH-41" value="" style="endArrow=classic;html=1;rounded=0;exitX=0.5;exitY=0;exitDx=0;exitDy=0;entryX=0.5;entryY=1;entryDx=0;entryDy=0;" parent="1" source="8ZGkcxDZsAjdSK9xiKbH-3" target="8ZGkcxDZsAjdSK9xiKbH-5" edge="1">
          <mxGeometry width="50" height="50" relative="1" as="geometry">
            <mxPoint x="570" y="620" as="sourcePoint" />
            <mxPoint x="470" y="540" as="targetPoint" />
          </mxGeometry>
        </mxCell>
        <mxCell id="8ZGkcxDZsAjdSK9xiKbH-43" value="" style="endArrow=classic;html=1;rounded=0;dashed=1;dashPattern=8 8;exitX=0.5;exitY=1;exitDx=0;exitDy=0;entryX=0.5;entryY=0;entryDx=0;entryDy=0;" parent="1" source="8ZGkcxDZsAjdSK9xiKbH-14" target="8ZGkcxDZsAjdSK9xiKbH-5" edge="1">
          <mxGeometry width="50" height="50" relative="1" as="geometry">
            <mxPoint x="255" y="490" as="sourcePoint" />
            <mxPoint x="305" y="440" as="targetPoint" />
          </mxGeometry>
        </mxCell>
        <mxCell id="8ZGkcxDZsAjdSK9xiKbH-50" value="" style="endArrow=classic;html=1;rounded=0;exitX=0.5;exitY=0;exitDx=0;exitDy=0;entryX=0.5;entryY=1;entryDx=0;entryDy=0;" parent="1" source="8ZGkcxDZsAjdSK9xiKbH-15" target="8ZGkcxDZsAjdSK9xiKbH-16" edge="1">
          <mxGeometry width="50" height="50" relative="1" as="geometry">
            <mxPoint x="90" y="300" as="sourcePoint" />
            <mxPoint x="140" y="250" as="targetPoint" />
          </mxGeometry>
        </mxCell>
        <mxCell id="8ZGkcxDZsAjdSK9xiKbH-57" value="" style="endArrow=classic;html=1;rounded=0;exitX=1;exitY=0.5;exitDx=0;exitDy=0;entryX=0;entryY=0.5;entryDx=0;entryDy=0;dashed=1;dashPattern=1 2;" parent="1" source="8ZGkcxDZsAjdSK9xiKbH-1" target="8ZGkcxDZsAjdSK9xiKbH-8" edge="1">
          <mxGeometry width="50" height="50" relative="1" as="geometry">
            <mxPoint x="760" y="920" as="sourcePoint" />
            <mxPoint x="810" y="870" as="targetPoint" />
          </mxGeometry>
        </mxCell>
        <mxCell id="8ZGkcxDZsAjdSK9xiKbH-59" value="" style="endArrow=classic;html=1;rounded=0;entryX=0;entryY=0;entryDx=0;entryDy=157.5;entryPerimeter=0;exitX=1;exitY=0.5;exitDx=0;exitDy=0;" parent="1" source="8ZGkcxDZsAjdSK9xiKbH-15" target="8ZGkcxDZsAjdSK9xiKbH-20" edge="1">
          <mxGeometry width="50" height="50" relative="1" as="geometry">
            <mxPoint x="10" y="520" as="sourcePoint" />
            <mxPoint x="60" y="470" as="targetPoint" />
          </mxGeometry>
        </mxCell>
        <mxCell id="qTGdVpBpQulgfOPe4ZZl-2" value="Glide" style="rounded=0;whiteSpace=wrap;html=1;" vertex="1" parent="1">
          <mxGeometry x="310" y="760" width="120" height="60" as="geometry" />
        </mxCell>
        <mxCell id="qTGdVpBpQulgfOPe4ZZl-8" style="edgeStyle=orthogonalEdgeStyle;rounded=0;orthogonalLoop=1;jettySize=auto;html=1;exitX=0;exitY=0.5;exitDx=0;exitDy=0;entryX=0.5;entryY=1;entryDx=0;entryDy=0;" edge="1" parent="1" source="8ZGkcxDZsAjdSK9xiKbH-14" target="8ZGkcxDZsAjdSK9xiKbH-15">
          <mxGeometry relative="1" as="geometry" />
        </mxCell>
        <mxCell id="8ZGkcxDZsAjdSK9xiKbH-14" value="Pokemon&lt;div&gt;RepositoryImpl&lt;/div&gt;" style="rounded=1;whiteSpace=wrap;html=1;" parent="1" vertex="1">
          <mxGeometry x="270" y="430" width="120" height="60" as="geometry" />
        </mxCell>
        <mxCell id="8ZGkcxDZsAjdSK9xiKbH-20" value="" style="shape=cylinder3;whiteSpace=wrap;html=1;boundedLbl=1;backgroundOutline=1;size=15;" parent="1" vertex="1">
          <mxGeometry x="375" y="110" width="145" height="220" as="geometry" />
        </mxCell>
        <mxCell id="8ZGkcxDZsAjdSK9xiKbH-17" value="AppDatabase&lt;div&gt;Room&lt;/div&gt;" style="rounded=1;whiteSpace=wrap;html=1;" parent="1" vertex="1">
          <mxGeometry x="387.5" y="160" width="120" height="60" as="geometry" />
        </mxCell>
        <mxCell id="8ZGkcxDZsAjdSK9xiKbH-18" value="Pokemon&lt;div&gt;DAO&lt;/div&gt;" style="rounded=1;whiteSpace=wrap;html=1;" parent="1" vertex="1">
          <mxGeometry x="387.5" y="240" width="120" height="60" as="geometry" />
        </mxCell>
        <mxCell id="qTGdVpBpQulgfOPe4ZZl-4" value="" style="endArrow=classic;html=1;rounded=0;exitX=0.5;exitY=0;exitDx=0;exitDy=0;entryX=0.25;entryY=1;entryDx=0;entryDy=0;" edge="1" parent="1" source="8ZGkcxDZsAjdSK9xiKbH-10" target="qTGdVpBpQulgfOPe4ZZl-2">
          <mxGeometry width="50" height="50" relative="1" as="geometry">
            <mxPoint x="70" y="850" as="sourcePoint" />
            <mxPoint x="120" y="800" as="targetPoint" />
          </mxGeometry>
        </mxCell>
        <mxCell id="qTGdVpBpQulgfOPe4ZZl-5" value="" style="endArrow=classic;html=1;rounded=0;exitX=0.25;exitY=0;exitDx=0;exitDy=0;entryX=0.75;entryY=1;entryDx=0;entryDy=0;" edge="1" parent="1" source="8ZGkcxDZsAjdSK9xiKbH-11" target="qTGdVpBpQulgfOPe4ZZl-2">
          <mxGeometry width="50" height="50" relative="1" as="geometry">
            <mxPoint x="240" y="810" as="sourcePoint" />
            <mxPoint x="290" y="760" as="targetPoint" />
          </mxGeometry>
        </mxCell>
        <mxCell id="qTGdVpBpQulgfOPe4ZZl-7" style="edgeStyle=orthogonalEdgeStyle;rounded=0;orthogonalLoop=1;jettySize=auto;html=1;exitX=1;exitY=0.5;exitDx=0;exitDy=0;entryX=0.462;entryY=0.986;entryDx=0;entryDy=0;entryPerimeter=0;" edge="1" parent="1" source="8ZGkcxDZsAjdSK9xiKbH-14" target="8ZGkcxDZsAjdSK9xiKbH-20">
          <mxGeometry relative="1" as="geometry" />
        </mxCell>
        <mxCell id="qTGdVpBpQulgfOPe4ZZl-12" value="Filters&lt;br&gt;&lt;div&gt;RecyclerViewAdapter&lt;/div&gt;" style="rounded=1;whiteSpace=wrap;html=1;" vertex="1" parent="1">
          <mxGeometry x="660" y="840" width="120" height="60" as="geometry" />
        </mxCell>
        <mxCell id="qTGdVpBpQulgfOPe4ZZl-13" value="" style="endArrow=classic;html=1;rounded=0;exitX=0.5;exitY=0;exitDx=0;exitDy=0;entryX=0.5;entryY=1;entryDx=0;entryDy=0;" edge="1" parent="1" source="8ZGkcxDZsAjdSK9xiKbH-9" target="qTGdVpBpQulgfOPe4ZZl-12">
          <mxGeometry width="50" height="50" relative="1" as="geometry">
            <mxPoint x="760" y="1000" as="sourcePoint" />
            <mxPoint x="810" y="950" as="targetPoint" />
          </mxGeometry>
        </mxCell>
      </root>
    </mxGraphModel>
  </diagram>
</mxfile>
